<?xml version="1.0" encoding="utf-8"?>
<!-- Generator: Adobe Illustrator 26.0.3, SVG Export Plug-In . SVG Version: 6.00 Build 0)  -->
<svg version="1.1" id="Logo" xmlns="http://www.w3.org/2000/svg" xmlns:xlink="http://www.w3.org/1999/xlink" x="0px" y="0px"
	 viewBox="0 0 3437 1250" style="enable-background:new 0 0 3437 1250;" xml:space="preserve">
<style type="text/css">
	.st0{fill:#FFFFFF;}
	.st1{fill:url(#SVGID_1_);}
	.st2{fill:url(#SVGID_00000102505450547550203230000006873320041315651519_);}
	.st3{fill:url(#SVGID_00000116221379898495324310000004774821478666719648_);}
	.st4{fill:#1A73E8;}
	.st5{display:none;}
	.st6{display:inline;fill:#5F6368;}
	.st7{font-family:'ProductSans-Regular';}
	.st8{font-size:380px;}
	.st9{letter-spacing:-13;}
	.st10{fill:#5F6368;}
	.st11{fill:none;}
</style>
<g>
	<rect y="0" class="st0" width="3437" height="1250"/>
</g>
<g>
	<g>
		<linearGradient id="SVGID_1_" gradientUnits="userSpaceOnUse" x1="651.421" y1="859.7458" x2="434.8949" y2="484.7116">
			<stop  offset="0" style="stop-color:#1E8E3E"/>
			<stop  offset="1" style="stop-color:#34A853"/>
		</linearGradient>
		<path class="st1" d="M625,750c-45.7,0-85.6-24.5-107.4-61.1c-0.6-1-1.2-2-1.7-3L408.5,500l0,0c0,0,0,0,0,0
			c-21.3,36.8-33.5,79.5-33.5,125c0,138.1,111.9,250,250,250l107.4-186.1C710.6,725.5,670.7,750,625,750z"/>
	</g>
	<g>
		
			<linearGradient id="SVGID_00000031911910579249761110000009562028245170705306_" gradientUnits="userSpaceOnUse" x1="597.9548" y1="859.3854" x2="814.4711" y2="484.3681">
			<stop  offset="0" style="stop-color:#FCC934"/>
			<stop  offset="1" style="stop-color:#FBBC04"/>
		</linearGradient>
		<path style="fill:url(#SVGID_00000031911910579249761110000009562028245170705306_);" d="M841.5,500L841.5,500H625
			c69,0,125,56,125,125c0,22.1-5.8,42.9-15.8,60.9c-0.6,1-1.1,2-1.7,3L625,875c138.1,0,250-111.9,250-250
			C875,579.5,862.8,536.8,841.5,500z"/>
	</g>
	<g>
		
			<linearGradient id="SVGID_00000044875813888411200500000011909327915674480302_" gradientUnits="userSpaceOnUse" x1="408.4739" y1="530.4595" x2="841.5464" y2="530.4595">
			<stop  offset="0" style="stop-color:#D93025"/>
			<stop  offset="1" style="stop-color:#EA4335"/>
		</linearGradient>
		<path style="fill:url(#SVGID_00000044875813888411200500000011909327915674480302_);" d="M841.5,500c-43.2-74.7-124-125-216.5-125
			s-173.3,50.3-216.5,125l0,0l107.3,185.9c-10.1-18-15.8-38.8-15.8-60.9c0-69,56-125,125-125L841.5,500L841.5,500
			C841.5,500,841.5,500,841.5,500z"/>
	</g>
	<g>
		<path class="st0" d="M750,625c0-69-56-125-125-125s-125,56-125,125c0,22.1,5.8,42.9,15.8,60.9l1.7,3
			C539.4,725.5,579.3,750,625,750s85.6-24.5,107.4-61.1l1.7-3C744.2,667.9,750,647.1,750,625z"/>
	</g>
	<g>
		<path class="st4" d="M727.5,625c0-56.6-45.9-102.5-102.5-102.5S522.5,568.4,522.5,625c0,18.1,4.7,35.2,13,50l1.4,2.5
			c17.9,30,50.6,50.1,88.1,50.1s70.2-20.1,88.1-50.1l1.4-2.5C722.8,660.2,727.5,643.1,727.5,625z"/>
	</g>
</g>
<text transform="matrix(1 0 0 1 966 754.5029)" class="st5"><tspan x="0" y="0" class="st6 st7 st8">c</tspan><tspan x="198.4" y="0" class="st6 st7 st8">h</tspan><tspan x="404.7" y="0" class="st6 st7 st8 st9">r</tspan><tspan x="529.3" y="0" class="st6 st7 st8">omebook</tspan></text>
<g>
	<path class="st10" d="M1072.4,760.6c-27.9,0-50.8-9.4-68.8-28.3c-18-18.9-27-42.5-27-70.9c0-28.4,9-52,27-70.9
		c18-18.9,40.9-28.3,68.8-28.3c20.8,0,38,5.1,51.7,15.2c13.7,10.1,23.7,22.9,30,38.4l-31.9,13.3c-9.6-23.3-27-35-52.1-35
		c-15.5,0-29.1,6.3-40.9,19c-11.8,12.7-17.7,28.8-17.7,48.3c0,19.5,5.9,35.6,17.7,48.3c11.8,12.7,25.4,19,40.9,19
		c26.1,0,44.1-11.6,54-35l31.2,13.3c-6.3,15.2-16.5,27.9-30.6,38.2C1110.6,755.5,1093.2,760.6,1072.4,760.6z"/>
	<path class="st10" d="M1220.6,482.4v85.9l-1.5,25.8h1.5c5.1-8.9,13-16.4,23.9-22.6c10.9-6.2,22.5-9.3,35-9.3
		c23,0,40.7,7.1,52.8,21.3c12.2,14.2,18.2,33.2,18.2,57v114h-35V645.8c0-34.4-15.3-51.7-46-51.7c-14.4,0-26.2,5.8-35.3,17.3
		c-9.1,11.5-13.7,24.9-13.7,40.1v103h-35V482.4H1220.6z"/>
	<path class="st10" d="M1426.9,754.5h-35V568.3h33.4v30.4h1.5c3.5-10.1,10.8-18.5,21.8-25.1c11-6.6,21.7-9.9,32.1-9.9
		c10.4,0,19.1,1.5,26.2,4.6l-13.3,32.7c-4.6-1.8-10.8-2.7-18.6-2.7c-12.7,0-23.9,5-33.6,15c-9.8,10-14.6,23.1-14.6,39.3V754.5z"/>
	<path class="st10" d="M1532.9,590.5c18-18.9,40.9-28.3,68.8-28.3c27.9,0,50.8,9.4,68.8,28.3c18,18.9,27,42.5,27,70.9
		c0,28.4-9,52-27,70.9c-18,18.9-40.9,28.3-68.8,28.3c-27.9,0-50.8-9.4-68.8-28.3c-18-18.9-27-42.5-27-70.9
		C1506,633,1515,609.4,1532.9,590.5z M1559,710.2c12,12.3,26.3,18.4,42.8,18.4c16.5,0,30.7-6.1,42.8-18.4c12-12.3,18-28.6,18-48.8
		c0-20.3-6-36.5-18-48.8c-12-12.3-26.3-18.4-42.8-18.4c-16.5,0-30.7,6.1-42.8,18.4c-12,12.3-18.1,28.6-18.1,48.8
		C1540.9,681.7,1546.9,697.9,1559,710.2z"/>
	<path class="st10" d="M1729.4,754.5V568.3h33.4v25.8h1.5c5.3-8.9,13.5-16.4,24.5-22.6c11-6.2,22-9.3,32.9-9.3
		c28.9,0,48.5,11.9,58.9,35.7c15.2-23.8,36.9-35.7,65-35.7c22,0,38.6,7,49.8,21.1c11.1,14.1,16.7,33.1,16.7,57.2v114h-35V645.8
		c0-18.7-3.4-32-10.3-39.9c-6.8-7.8-17.2-11.8-31.2-11.8c-13.7,0-25,5.8-34,17.5c-9,11.7-13.5,25-13.5,39.9v103h-35V645.8
		c0-18.7-3.4-32-10.3-39.9c-6.8-7.8-17.2-11.8-31.2-11.8c-13.7,0-25,5.8-34,17.5c-9,11.7-13.5,25-13.5,39.9v103H1729.4z"/>
	<path class="st10" d="M2137.5,760.6c-28.1,0-51-9.4-68.6-28.1c-17.6-18.7-26.4-42.4-26.4-71.1c0-27.1,8.6-50.4,25.7-69.9
		c17.1-19.5,39-29.3,65.5-29.3c27.6,0,49.7,9,66.3,27c16.6,18,24.9,42.1,24.9,72.2l-0.4,6.5h-147.1c1,18.8,7.3,33.6,18.8,44.5
		c11.5,10.9,25,16.3,40.5,16.3c25.1,0,42-10.6,50.9-31.9l31.2,12.9c-6.1,14.4-16.1,26.5-30,36.3
		C2174.9,755.7,2157.8,760.6,2137.5,760.6z M2187.7,639c-0.8-10.6-5.6-20.8-14.6-30.4c-9-9.6-22.4-14.4-40.1-14.4
		c-12.9,0-24.1,4.1-33.6,12.2c-9.5,8.1-16,19-19.6,32.7H2187.7z"/>
	<path class="st10" d="M2355.3,760.6c-14.2,0-26.9-3-38.2-9.1c-11.3-6.1-19.7-13.7-25.3-22.8h-1.5v25.8h-33.4V482.4h35v85.9
		l-1.5,25.8h1.5c5.6-9.1,14-16.7,25.3-22.8c11.3-6.1,24-9.1,38.2-9.1c24.1,0,44.8,9.5,62.3,28.5c17.5,19,26.2,42.6,26.2,70.7
		c0,28.1-8.7,51.7-26.2,70.7C2400.1,751.1,2379.3,760.6,2355.3,760.6z M2349.6,728.7c16.2,0,30.1-6.1,41.8-18.4
		c11.6-12.3,17.5-28.6,17.5-48.8c0-20.3-5.8-36.5-17.5-48.8c-11.7-12.3-25.6-18.4-41.8-18.4c-16.5,0-30.5,6.1-42,18.2
		c-11.5,12.2-17.3,28.5-17.3,49c0,20.5,5.8,36.9,17.3,49C2319.1,722.6,2333.1,728.7,2349.6,728.7z"/>
	<path class="st10" d="M2492.1,590.5c18-18.9,40.9-28.3,68.8-28.3c27.9,0,50.8,9.4,68.8,28.3c18,18.9,27,42.5,27,70.9
		c0,28.4-9,52-27,70.9c-18,18.9-40.9,28.3-68.8,28.3c-27.9,0-50.8-9.4-68.8-28.3c-18-18.9-27-42.5-27-70.9
		C2465.1,633,2474.1,609.4,2492.1,590.5z M2518.1,710.2c12,12.3,26.3,18.4,42.8,18.4c16.5,0,30.7-6.1,42.8-18.4
		c12-12.3,18-28.6,18-48.8c0-20.3-6-36.5-18-48.8c-12-12.3-26.3-18.4-42.8-18.4c-16.5,0-30.7,6.1-42.8,18.4
		c-12,12.3-18.1,28.6-18.1,48.8C2500,681.7,2506.1,697.9,2518.1,710.2z"/>
	<path class="st10" d="M2704.9,590.5c18-18.9,40.9-28.3,68.8-28.3c27.9,0,50.8,9.4,68.8,28.3c18,18.9,27,42.5,27,70.9
		c0,28.4-9,52-27,70.9c-18,18.9-40.9,28.3-68.8,28.3c-27.9,0-50.8-9.4-68.8-28.3c-18-18.9-27-42.5-27-70.9
		C2677.9,633,2686.9,609.4,2704.9,590.5z M2730.9,710.2c12,12.3,26.3,18.4,42.8,18.4c16.5,0,30.7-6.1,42.8-18.4
		c12-12.3,18-28.6,18-48.8c0-20.3-6-36.5-18-48.8c-12-12.3-26.3-18.4-42.8-18.4c-16.5,0-30.7,6.1-42.8,18.4
		c-12,12.3-18.1,28.6-18.1,48.8C2712.8,681.7,2718.9,697.9,2730.9,710.2z"/>
	<path class="st10" d="M2934.4,482.4V650l80.6-81.7h44.8v1.5l-72.6,72.6l76,110.6v1.5H3021l-58.5-87.8l-28.1,28.1v59.7h-35V482.4
		H2934.4z"/>
</g>
<rect y="0" class="st11" width="375" height="375"/>
<rect x="3062" y="0" class="st11" width="375" height="375"/>
<rect x="3062" y="875" class="st11" width="375" height="375"/>
<rect y="875" class="st11" width="375" height="375"/>
</svg>
