<?xml version="1.0" encoding="utf-8"?>
<!-- Generator: Adobe Illustrator 25.2.1, SVG Export Plug-In . SVG Version: 6.00 Build 0)  -->
<svg version="1.1" id="Logo" xmlns="http://www.w3.org/2000/svg" xmlns:xlink="http://www.w3.org/1999/xlink" x="0px" y="0px"
	 viewBox="0 0 726 166" style="enable-background:new 0 0 726 166;" xml:space="preserve">
<style type="text/css">
	.st0{fill:#0081C6;}
	.st1{fill:#F04931;}
	.st2{fill:#FBAB18;}
	.st3{fill:#00AE57;}
	.st4{fill:#666C71;}
</style>
<g>
	<g>
		<path class="st0" d="M82.2,110.8C66.9,110.8,54,98.3,54,83s12.9-27.8,28.2-27.8c8.5,0,14.5,3.3,19,7.7l-5.4,5.4
			c-3.2-3-7.7-5.4-13.7-5.4c-11.2,0-19.9,9-19.9,20.2s8.7,20.2,19.9,20.2c7.2,0,11.4-2.9,14-5.6c2.2-2.2,3.6-5.3,4.1-9.6H82.2v-7.6
			h25.5c0.3,1.4,0.4,3,0.4,4.7c0,5.7-1.6,12.7-6.6,17.7C96.7,108.1,90.4,110.8,82.2,110.8z"/>
		<path class="st1" d="M146.4,92.9c0,10.3-8.1,17.9-18,17.9s-18-7.6-18-17.9c0-10.4,8.1-17.9,18-17.9S146.4,82.5,146.4,92.9z
			 M138.5,92.9c0-6.4-4.7-10.8-10.1-10.8c-5.4,0-10.1,4.4-10.1,10.8c0,6.4,4.7,10.8,10.1,10.8C133.8,103.7,138.5,99.3,138.5,92.9z"
			/>
		<path class="st2" d="M185.2,92.9c0,10.3-8.1,17.9-18,17.9c-9.9,0-18-7.6-18-17.9c0-10.4,8.1-17.9,18-17.9
			C177.1,75,185.2,82.5,185.2,92.9z M177.3,92.9c0-6.4-4.7-10.8-10.1-10.8c-5.4,0-10.1,4.4-10.1,10.8c0,6.4,4.7,10.8,10.1,10.8
			S177.3,99.3,177.3,92.9L177.3,92.9z"/>
		<path class="st0" d="M222.3,76.2v32c0,13.2-7.7,18.6-16.9,18.6c-8.7,0-13.9-5.8-15.9-10.6l6.8-2.8c1.2,2.9,4.2,6.4,9,6.4
			c5.9,0,9.6-3.7,9.6-10.5v-2.6h-0.3c-1.8,2.2-5.1,4.1-9.4,4.1c-8.9,0-17.1-7.8-17.1-17.8c0-10.1,8.2-18,17.1-18
			c4.3,0,7.7,1.9,9.4,4h0.3v-2.8H222.3z M215.4,93c0-6.3-4.2-10.9-9.6-10.9c-5.4,0-10,4.6-10,10.9c0,6.2,4.5,10.8,10,10.8
			C211.2,103.7,215.4,99.2,215.4,93z"/>
		<path class="st3" d="M235.1,57.1v52.6h-7.9V57.1H235.1z"/>
		<path class="st1" d="M265.1,98.8l6.1,4.1c-2,2.9-6.7,7.9-14.9,7.9c-10.2,0-17.7-7.9-17.7-17.9c0-10.6,7.6-17.9,16.9-17.9
			c9.3,0,13.8,7.4,15.3,11.4l0.8,2l-23.9,9.9c1.8,3.6,4.7,5.4,8.7,5.4C260.3,103.7,263.1,101.8,265.1,98.8L265.1,98.8z M246.3,92.3
			l16-6.6c-0.9-2.2-3.5-3.8-6.6-3.8C251.7,81.9,246.1,85.4,246.3,92.3z"/>
	</g>
	<g>
		<path class="st4" d="M309.7,60.4c2,0,3.7,0.3,5.1,0.9l-2.2,5.4c-0.7-0.4-1.7-0.5-2.9-0.5c-1.6,0-3,0.5-4,1.5
			c-1.1,1-1.6,2.4-1.6,4.3v4.2h8.8v5.7h-8.8v27.8h-6.3V81.9h-6.3v-5.7h6.3v-4.4c0-3.4,1.1-6.2,3.3-8.2
			C303.2,61.5,306.1,60.4,309.7,60.4z"/>
		<path class="st4" d="M319.2,80.2c3.2-3.4,7.4-5.1,12.4-5.1c5,0,9.1,1.7,12.4,5.1c3.2,3.4,4.9,7.7,4.9,12.8c0,5.1-1.6,9.4-4.9,12.8
			c-3.2,3.4-7.4,5.1-12.4,5.1c-5,0-9.1-1.7-12.4-5.1c-3.2-3.4-4.9-7.6-4.9-12.8C314.4,87.8,316,83.6,319.2,80.2z M323.9,101.7
			c2.2,2.2,4.7,3.3,7.7,3.3c3,0,5.5-1.1,7.7-3.3c2.2-2.2,3.2-5.1,3.2-8.8c0-3.6-1.1-6.6-3.2-8.8c-2.2-2.2-4.7-3.3-7.7-3.3
			c-3,0-5.5,1.1-7.7,3.3c-2.2,2.2-3.2,5.1-3.2,8.8C320.7,96.6,321.7,99.5,323.9,101.7z"/>
		<path class="st4" d="M359.7,109.7h-6.3V76.2h6v5.5h0.3c0.6-1.8,1.9-3.3,3.9-4.5c2-1.2,3.9-1.8,5.8-1.8c1.9,0,3.4,0.3,4.7,0.8
			l-2.4,5.9c-0.8-0.3-1.9-0.5-3.4-0.5c-2.3,0-4.3,0.9-6.1,2.7c-1.8,1.8-2.6,4.2-2.6,7.1V109.7z"/>
		<path class="st4" d="M423,66.7h-22.3v15.5h20.1v5.9h-20.1v15.5H423v6h-28.6v-49H423V66.7z"/>
		<path class="st4" d="M441.6,110.8c-4.3,0-8.1-1.7-11.2-5.1c-3.1-3.4-4.7-7.7-4.7-12.7s1.6-9.3,4.7-12.7c3.1-3.4,6.9-5.1,11.2-5.1
			c2.6,0,4.8,0.5,6.9,1.6c2,1.1,3.5,2.5,4.5,4.1h0.3l-0.3-4.7V60.7h6.3v49h-6V105H453c-1,1.6-2.5,3-4.5,4.1
			C446.4,110.2,444.1,110.8,441.6,110.8z M442.6,105c3,0,5.5-1.1,7.6-3.3c2.1-2.2,3.1-5.1,3.1-8.8s-1-6.6-3.1-8.8
			c-2.1-2.2-4.6-3.3-7.6-3.3c-2.9,0-5.4,1.1-7.5,3.3c-2.1,2.2-3.1,5.1-3.1,8.8c0,3.6,1,6.6,3.1,8.8C437.2,103.9,439.7,105,442.6,105
			z"/>
		<path class="st4" d="M495.2,109.7h-6V105h-0.3c-1,1.6-2.4,3-4.4,4.1c-2,1.1-4,1.7-6.2,1.7c-4.2,0-7.4-1.3-9.5-3.8
			c-2.2-2.6-3.2-6-3.2-10.3V76.2h6.3v19.5c0,6.2,2.8,9.4,8.3,9.4c2.6,0,4.7-1,6.4-3.1c1.6-2.1,2.5-4.5,2.5-7.3V76.2h6.3V109.7z"/>
		<path class="st4" d="M517,110.8c-5,0-9.1-1.7-12.4-5.1c-3.2-3.4-4.9-7.6-4.9-12.8c0-5.1,1.6-9.4,4.9-12.8
			c3.2-3.4,7.4-5.1,12.4-5.1c3.7,0,6.8,0.9,9.3,2.7c2.5,1.8,4.3,4.1,5.4,6.9l-5.7,2.4c-1.7-4.2-4.9-6.3-9.4-6.3
			c-2.8,0-5.2,1.1-7.4,3.4c-2.1,2.3-3.2,5.2-3.2,8.7c0,3.5,1.1,6.4,3.2,8.7c2.1,2.3,4.6,3.4,7.4,3.4c4.7,0,7.9-2.1,9.7-6.3l5.6,2.4
			c-1.1,2.7-3,5-5.5,6.9C523.9,109.9,520.7,110.8,517,110.8z"/>
		<path class="st4" d="M547.2,110.8c-3.6,0-6.5-1-8.9-3.1s-3.6-4.8-3.6-8.1c0-3.6,1.4-6.5,4.2-8.6c2.8-2.1,6.3-3.1,10.5-3.1
			c3.7,0,6.7,0.7,9.1,2.1v-1c0-2.5-0.8-4.4-2.5-5.9c-1.7-1.5-3.8-2.2-6.2-2.2c-1.8,0-3.5,0.4-5,1.3c-1.5,0.9-2.5,2.1-3,3.6l-5.7-2.5
			c0.8-2,2.3-3.9,4.6-5.6c2.3-1.7,5.3-2.6,9-2.6c4.3,0,7.8,1.3,10.7,3.8c2.8,2.5,4.2,6,4.2,10.6v20.2h-6V105h-0.3
			C555.7,108.9,552,110.8,547.2,110.8z M548.2,105c2.6,0,5-1,7.1-2.9c2.1-1.9,3.2-4.2,3.2-6.9c-1.8-1.5-4.4-2.2-8-2.2
			c-3.1,0-5.4,0.7-6.9,2c-1.6,1.3-2.3,2.9-2.3,4.7c0,1.6,0.7,2.9,2.1,3.9C544.7,104.6,546.4,105,548.2,105z"/>
		<path class="st4" d="M583.8,110.2c-3.5,0-6.2-0.9-8-2.8c-1.8-1.9-2.8-4.5-2.8-7.9V81.9h-5.9v-5.7h5.9V65.9h6.3v10.3h8.2v5.7h-8.2
			V99c0,3.6,1.5,5.5,4.5,5.5c1.1,0,2.1-0.2,2.9-0.5l2.2,5.4C587.5,109.9,585.8,110.2,583.8,110.2z"/>
		<path class="st4" d="M598.6,67.8c-0.9,0.9-1.9,1.3-3.1,1.3s-2.3-0.4-3.1-1.3c-0.9-0.9-1.3-1.9-1.3-3.1c0-1.2,0.4-2.3,1.3-3.1
			c0.9-0.9,1.9-1.3,3.1-1.3s2.3,0.4,3.1,1.3c0.9,0.9,1.3,1.9,1.3,3.1C599.9,65.8,599.5,66.9,598.6,67.8z M598.6,109.7h-6.3V76.2h6.3
			V109.7z"/>
		<path class="st4" d="M608.2,80.2c3.2-3.4,7.4-5.1,12.4-5.1c5,0,9.1,1.7,12.4,5.1c3.2,3.4,4.9,7.7,4.9,12.8c0,5.1-1.6,9.4-4.9,12.8
			c-3.2,3.4-7.4,5.1-12.4,5.1c-5,0-9.1-1.7-12.4-5.1c-3.2-3.4-4.9-7.6-4.9-12.8C603.3,87.8,604.9,83.6,608.2,80.2z M612.8,101.7
			c2.2,2.2,4.7,3.3,7.7,3.3c3,0,5.5-1.1,7.7-3.3c2.2-2.2,3.2-5.1,3.2-8.8c0-3.6-1.1-6.6-3.2-8.8c-2.2-2.2-4.7-3.3-7.7-3.3
			c-3,0-5.5,1.1-7.7,3.3c-2.2,2.2-3.2,5.1-3.2,8.8C609.6,96.6,610.7,99.5,612.8,101.7z"/>
		<path class="st4" d="M648.3,76.2v4.7h0.3c0.9-1.6,2.3-3,4.3-4.1c2-1.1,4.1-1.7,6.3-1.7c4.1,0,7.3,1.3,9.5,3.8
			c2.2,2.6,3.3,6,3.3,10.3v20.5h-6.3V90.1c0-6.2-2.8-9.3-8.3-9.3c-2.6,0-4.7,1-6.4,3.1c-1.6,2.1-2.5,4.5-2.5,7.2v18.5h-6.3V76.2
			H648.3z"/>
	</g>
</g>
</svg>
