<?xml version="1.0" encoding="UTF-8"?><svg id="Google_logo" xmlns="http://www.w3.org/2000/svg" viewBox="0 0 353.96 36"><defs><style>.cls-1{fill:#fbbc04;}.cls-2{fill:#ea4335;}.cls-3{fill:#4285f4;}.cls-4{fill:#34a853;}.cls-5{fill:#5f6368;}</style></defs><g><path class="cls-3" d="M14.16,27.93C6.47,27.93,0,21.66,0,13.96S6.47,0,14.16,0c4.25,0,7.28,1.67,9.56,3.85l-2.69,2.69c-1.63-1.53-3.85-2.72-6.88-2.72-5.62,0-10.01,4.53-10.01,10.15s4.39,10.15,10.01,10.15c3.64,0,5.72-1.46,7.05-2.79,1.09-1.09,1.8-2.66,2.08-4.8H14.06v-3.81h12.93c.14,.68,.2,1.5,.2,2.38,0,2.86-.78,6.4-3.3,8.92-2.45,2.55-5.58,3.92-9.73,3.92Z"/><path class="cls-2" d="M46.56,18.94c0,5.18-4.05,8.99-9.01,8.99s-9.01-3.81-9.01-8.99,4.05-8.99,9.01-8.99,9.01,3.78,9.01,8.99Zm-3.94,0c0-3.24-2.35-5.45-5.07-5.45s-5.07,2.21-5.07,5.45,2.35,5.45,5.07,5.45,5.07-2.25,5.07-5.45Z"/><path class="cls-1" d="M66.17,18.94c0,5.18-4.05,8.99-9.01,8.99s-9.01-3.81-9.01-8.99,4.05-8.99,9.01-8.99,9.01,3.78,9.01,8.99Zm-3.94,0c0-3.24-2.35-5.45-5.07-5.45s-5.07,2.21-5.07,5.45,2.35,5.45,5.07,5.45,5.07-2.25,5.07-5.45Z"/><path class="cls-3" d="M84.93,10.49V26.63c0,6.64-3.91,9.37-8.54,9.37-4.36,0-6.98-2.93-7.96-5.31l3.44-1.43c.61,1.46,2.11,3.2,4.53,3.2,2.96,0,4.8-1.84,4.8-5.28v-1.29h-.14c-.88,1.09-2.59,2.04-4.73,2.04-4.49,0-8.61-3.92-8.61-8.96s4.12-9.03,8.61-9.03c2.14,0,3.85,.95,4.73,2.01h.14v-1.46h3.74Zm-3.47,8.48c0-3.17-2.11-5.48-4.8-5.48s-5,2.32-5,5.48,2.28,5.42,5,5.42,4.8-2.28,4.8-5.42Z"/><path class="cls-4" d="M91.71,.95V27.38h-3.95V.95h3.95Z"/><path class="cls-2" d="M107.02,21.9l3.06,2.04c-.99,1.46-3.37,3.98-7.49,3.98-5.11,0-8.92-3.95-8.92-8.99,0-5.35,3.85-8.99,8.47-8.99s6.94,3.71,7.69,5.72l.41,1.02-12.01,4.97c.92,1.8,2.35,2.72,4.36,2.72s3.4-.99,4.42-2.49Zm-9.43-3.24l8.03-3.34c-.44-1.12-1.77-1.91-3.34-1.91-2.01,0-4.8,1.77-4.7,5.25Z"/></g><path class="cls-5" d="M127.04,2.53c1.14,0,2.08,.2,2.82,.58l-.86,2.78c-.55-.27-1.17-.41-1.85-.41-.78,0-1.41,.27-1.9,.81-.49,.54-.74,1.25-.74,2.14v2.13h4.39v2.88h-4.39v13.93h-3.16V13.45h-3.16v-2.88h3.16v-2.44c0-1.67,.53-3.02,1.59-4.05,1.06-1.03,2.43-1.54,4.1-1.54"/><path class="cls-5" d="M129.79,18.97c0-2.58,.81-4.72,2.44-6.42,1.65-1.69,3.72-2.54,6.21-2.54s4.55,.85,6.18,2.54c1.65,1.69,2.47,3.83,2.47,6.42s-.82,4.75-2.47,6.42c-1.62,1.69-3.68,2.54-6.18,2.54s-4.56-.85-6.21-2.54c-1.62-1.69-2.44-3.83-2.44-6.42m3.16,0c0,1.81,.53,3.27,1.58,4.39,1.05,1.12,2.36,1.68,3.91,1.68s2.86-.56,3.91-1.68c1.05-1.12,1.58-2.58,1.58-4.39s-.53-3.24-1.58-4.36c-1.08-1.14-2.38-1.72-3.91-1.72s-2.84,.57-3.91,1.72c-1.05,1.12-1.58,2.57-1.58,4.36"/><path class="cls-5" d="M152.58,27.38h-3.16V10.56h3.02v2.75h.14c.32-.89,.98-1.65,1.97-2.28,1-.63,1.97-.94,2.93-.94s1.69,.14,2.33,.41l-.96,3.05c-.39-.16-1.01-.24-1.85-.24-1.19,0-2.22,.48-3.1,1.44-.88,.96-1.32,2.08-1.32,3.36v9.26Z"/><g><path class="cls-5" d="M191.6,16.03c0,3.45-1.02,6.2-3.07,8.25-2.32,2.44-5.35,3.66-9.07,3.66s-6.6-1.24-9.09-3.71c-2.5-2.47-3.74-5.54-3.74-9.19s1.25-6.72,3.74-9.19c2.5-2.47,5.53-3.71,9.09-3.71,1.77,0,3.46,.34,5.07,1.03,1.61,.69,2.9,1.61,3.86,2.76l-2.17,2.17c-1.63-1.95-3.89-2.93-6.76-2.93-2.6,0-4.85,.91-6.74,2.74-1.9,1.83-2.85,4.2-2.85,7.12s.95,5.3,2.85,7.12c1.9,1.83,4.15,2.74,6.74,2.74,2.76,0,5.06-.92,6.9-2.76,1.2-1.2,1.89-2.86,2.07-5h-8.97v-2.97h11.97c.11,.64,.17,1.27,.17,1.86Z"/><path class="cls-5" d="M196.05,12.49c1.63-1.71,3.71-2.57,6.24-2.57s4.61,.86,6.24,2.57c1.63,1.71,2.45,3.86,2.45,6.43s-.82,4.72-2.45,6.43c-1.63,1.71-3.71,2.57-6.24,2.57s-4.61-.86-6.24-2.57c-1.63-1.71-2.45-3.86-2.45-6.43s.82-4.72,2.45-6.43Zm2.36,10.87c1.09,1.12,2.39,1.67,3.88,1.67s2.79-.56,3.88-1.67c1.09-1.12,1.64-2.59,1.64-4.43s-.55-3.32-1.64-4.43c-1.09-1.12-2.39-1.67-3.88-1.67s-2.79,.56-3.88,1.67c-1.09,1.12-1.64,2.59-1.64,4.43s.55,3.32,1.64,4.43Z"/><path class="cls-5" d="M218.41,27.38l-6.83-16.91h3.45l4.97,13.11h.07l5.04-13.11h3.38l-6.9,16.91h-3.17Z"/><path class="cls-5" d="M237.52,27.93c-2.55,0-4.63-.85-6.23-2.55-1.6-1.7-2.4-3.85-2.4-6.45,0-2.46,.78-4.58,2.33-6.35,1.55-1.77,3.54-2.66,5.95-2.66s4.51,.82,6.02,2.45c1.51,1.63,2.26,3.82,2.26,6.55l-.03,.59h-13.35c.09,1.7,.66,3.05,1.71,4.04,1.05,.99,2.27,1.48,3.67,1.48,2.28,0,3.82-.97,4.62-2.9l2.83,1.17c-.55,1.31-1.46,2.41-2.73,3.29-1.27,.89-2.82,1.33-4.66,1.33Zm4.55-11.04c-.07-.97-.51-1.89-1.33-2.76-.82-.87-2.03-1.31-3.64-1.31-1.17,0-2.19,.37-3.05,1.1-.86,.74-1.45,1.72-1.78,2.97h9.8Z"/><path class="cls-5" d="M251.53,27.38h-3.17V10.47h3.04v2.76h.14c.32-.92,.98-1.68,1.98-2.28,1-.6,1.97-.9,2.92-.9s1.74,.14,2.38,.41l-1.21,2.97c-.41-.16-.98-.24-1.69-.24-1.15,0-2.17,.45-3.05,1.36-.89,.91-1.33,2.1-1.33,3.57v9.25Z"/><path class="cls-5" d="M263.74,10.47v2.35h.14c.46-.8,1.18-1.49,2.17-2.05,.99-.56,2.05-.85,3.17-.85,2.09,0,3.69,.64,4.8,1.93,1.1,1.29,1.66,3.01,1.66,5.18v10.35h-3.17v-9.87c0-3.13-1.39-4.69-4.17-4.69-1.31,0-2.38,.52-3.21,1.57-.83,1.05-1.24,2.26-1.24,3.64v9.35h-3.17V10.47h3.04Z"/><path class="cls-5" d="M278.89,27.38V10.47h3.04v2.35h.14c.48-.8,1.22-1.49,2.23-2.05,1-.56,2-.85,2.98-.85,2.62,0,4.4,1.08,5.35,3.24,1.38-2.16,3.35-3.24,5.9-3.24,2,0,3.51,.64,4.52,1.91,1.01,1.28,1.52,3.01,1.52,5.19v10.35h-3.17v-9.87c0-1.7-.31-2.91-.93-3.62-.62-.71-1.56-1.07-2.83-1.07s-2.27,.53-3.09,1.59c-.82,1.06-1.22,2.27-1.22,3.62v9.35h-3.17v-9.87c0-1.7-.31-2.91-.93-3.62-.62-.71-1.56-1.07-2.83-1.07s-2.27,.53-3.09,1.59c-.82,1.06-1.22,2.27-1.22,3.62v9.35h-3.17Z"/><path class="cls-5" d="M315.77,27.93c-2.55,0-4.63-.85-6.23-2.55-1.6-1.7-2.4-3.85-2.4-6.45,0-2.46,.78-4.58,2.33-6.35,1.55-1.77,3.54-2.66,5.95-2.66s4.51,.82,6.02,2.45c1.51,1.63,2.26,3.82,2.26,6.55l-.03,.59h-13.35c.09,1.7,.66,3.05,1.71,4.04,1.05,.99,2.27,1.48,3.67,1.48,2.28,0,3.82-.97,4.62-2.9l2.83,1.17c-.55,1.31-1.46,2.41-2.73,3.29-1.27,.89-2.82,1.33-4.66,1.33Zm4.55-11.04c-.07-.97-.51-1.89-1.33-2.76-.82-.87-2.03-1.31-3.64-1.31-1.17,0-2.19,.37-3.05,1.1-.86,.74-1.45,1.72-1.78,2.97h9.8Z"/><path class="cls-5" d="M329.46,10.47v2.35h.14c.46-.8,1.18-1.49,2.17-2.05,.99-.56,2.05-.85,3.17-.85,2.09,0,3.69,.64,4.8,1.93,1.1,1.29,1.66,3.01,1.66,5.18v10.35h-3.17v-9.87c0-3.13-1.39-4.69-4.17-4.69-1.31,0-2.38,.52-3.21,1.57-.83,1.05-1.24,2.26-1.24,3.64v9.35h-3.17V10.47h3.04Z"/><path class="cls-5" d="M351.4,27.65c-1.77,0-3.12-.47-4.05-1.41-.93-.94-1.4-2.28-1.4-4V13.37h-2.97v-2.9h2.97V5.3h3.17v5.17h4.14v2.9h-4.14v8.62c0,1.84,.76,2.76,2.28,2.76,.57,0,1.06-.09,1.45-.28l1.1,2.73c-.69,.3-1.54,.45-2.55,.45Z"/></g></svg>