<?xml version="1.0" encoding="UTF-8"?>
<svg id="standard_product_icon" data-name="standard product icon" xmlns="http://www.w3.org/2000/svg" version="1.1" viewBox="0 0 512 512">
  <defs>
    <style>
      .cls-1 {
        fill: none;
      }

      .cls-1, .cls-2, .cls-3, .cls-4, .cls-5 {
        stroke-width: 0px;
      }

      .cls-2 {
        fill: #34a853;
      }

      .cls-3 {
        fill: #4285f4;
      }

      .cls-4 {
        fill: #ea4335;
      }

      .cls-5 {
        fill: #fbbc04;
      }
    </style>
  </defs>
  <g id="bounding_box" data-name="bounding box">
    <rect class="cls-1" width="512" height="512"/>
  </g>
  <g id="art">
    <path class="cls-3" d="M160.9,353c-32.5-30.8-48.9-63.5-48.9-97.1V96h288l12.8-15.6-12.8-16.4H112c-17.7,0-32,14.3-32,32v159.8c0,42.8,19.8,83.3,58.9,120.4,38.4,36.4,85.9,59.4,110.8,70.1l1.6.7c1.5.6,3.1,1,4.7,1,1.6,0,3.2-.4,4.7-1l1.6-.7c8.9-3.8,20.7-9.2,33.9-16.2-5.8-7-11.2-14.5-11.2-14.5,0,0-29-1-29.1-1-24-10.8-63.2-31.4-95.1-61.5h0Z"/>
    <path class="cls-2" d="M400,64v191.8c0,33.7-16.5,66.4-48.9,97.1-31.9,30.2-71.1,50.7-95.1,61.5,0,0,18.1,6.7,40.2,15.5,23.8-12.6,52.2-30.4,76.9-53.9,39.1-37,58.9-77.6,58.9-120.4V96c0-17.7-14.3-32-32-32h0Z"/>
    <path class="cls-5" d="M221.9,341.8l26.1-1.6,8-16.2c-15.9-7.6-30.9-17.3-41.9-28-14.7-14.4-22.1-29.2-22.1-43.9v-76l9.9-16.1-9.9-15.9h0c-17.7,0-32,14.3-32,32v76c0,38.3,28.6,69.3,61.9,89.8h0Z"/>
    <path class="cls-4" d="M320,176v75.9c0,14.8-7.5,29.5-22.1,43.9-11,10.7-25.9,20.4-41.9,28.1l-34.1,17.9c9.1,5.6,18.5,10.4,27.8,14.4l1.6.7c1.5.6,3.1,1.1,4.7,1.1s3.2-.5,4.7-1.1l1.6-.7c12.8-5.5,37.2-17.2,57.9-37.5,20.8-20.4,31.8-43.5,31.8-66.8v-75.9c0-17.7-14.3-32-32-32h-128v32h128Z"/>
  </g>
</svg>